<?xml version="1.0" encoding="UTF-8" standalone="no" ?>
<!DOCTYPE svg PUBLIC "-//W3C//DTD SVG 1.1//EN" "http://www.w3.org/Graphics/SVG/1.1/DTD/svg11.dtd">
<svg xmlns="http://www.w3.org/2000/svg" xmlns:xlink="http://www.w3.org/1999/xlink" version="1.1" width="1280" height="1024" viewBox="0 0 1280 1024" xml:space="preserve">
<desc>Created with Fabric.js 5.3.0</desc>
<defs>
</defs>
<g transform="matrix(1 0 0 1 640 512)" id="background-logo"  >
<rect style="stroke: none; stroke-width: 0; stroke-dasharray: none; stroke-linecap: butt; stroke-dashoffset: 0; stroke-linejoin: miter; stroke-miterlimit: 4; fill: rgb(13,54,17); fill-rule: nonzero; opacity: 1;"  paint-order="stroke"  x="-640" y="-512" rx="0" ry="0" width="1280" height="1024" />
</g>
<g transform="matrix(1.9211538461538462 0 0 1.9211538461538462 640 406.71627793159723)" id="logo-logo"  >
<g style=""  paint-order="stroke"   >
		<g transform="matrix(0.6912074919021229 0 0 0.6912074919021229 64.81348970442428 -21.317530257753333)"  >
<linearGradient id="SVGID_2_270212" gradientUnits="userSpaceOnUse" gradientTransform="matrix(0.072 0 0 -0.072 -79.1679 147.5599)"  x1="6651.918" y1="-3478.771" x2="6651.918" y2="44.3169">
<stop offset="0%" style="stop-color:rgb(27,131,94);stop-opacity: 1"/>
<stop offset="100%" style="stop-color:rgb(234,253,24);stop-opacity: 1"/>
</linearGradient>
<path style="stroke: none; stroke-width: 1; stroke-dasharray: none; stroke-linecap: butt; stroke-dashoffset: 0; stroke-linejoin: miter; stroke-miterlimit: 4; fill: url(#SVGID_2_270212); fill-rule: nonzero; opacity: 1;"  paint-order="stroke"  transform=" translate(-399.7705, -365.1600000000001)" d="M 426.07 294.97 C 426.79 293.97 427.38 292.69000000000005 427.74 291.08000000000004 C 429.46000000000004 283.31000000000006 425.91 275.44000000000005 417.49 271.99000000000007 C 409.08 268.5400000000001 402.389 265.4100000000001 399.769 258.8400000000001 C 397.139 265.4100000000001 390.459 268.5400000000001 382.04 271.99000000000007 C 373.63 275.44000000000005 370.07 283.31000000000006 371.8 291.08000000000004 C 372.16 292.69000000000005 372.75 293.97 373.46000000000004 294.97 L 367.05 294.97 L 373.06 310.15000000000003 L 426.47 310.15000000000003 L 432.49100000000004 294.97 L 426.07 294.97 z M 383.63 315.1 L 383.63 471.48 L 415.90999999999997 471.48 L 415.90999999999997 315.1 L 383.63 315.1 z M 405.1 393.24 L 394.43 393.24 L 394.43 379.09000000000003 C 394.43 376.16 396.83 373.76000000000005 399.77 373.76000000000005 C 402.70099999999996 373.76000000000005 405.09999999999997 376.16 405.09999999999997 379.09000000000003 L 405.09999999999997 393.24 z M 405.1 349.02 L 394.43 349.02 L 394.43 334.88 C 394.43 331.94 396.83 329.54 399.77 329.54 C 402.70099999999996 329.54 405.09999999999997 331.94 405.09999999999997 334.88 L 405.09999999999997 349.02 z" stroke-linecap="round" />
</g>
		<g transform="matrix(0.6912074919021229 0 0 0.6912074919021229 -0.0015856081152492152 -40.07957455556658)"  >
<linearGradient id="SVGID_3_270213" gradientUnits="userSpaceOnUse" gradientTransform="matrix(0.072 0 0 -0.072 -79.1679 147.5599)"  x1="5349.5488" y1="-3204.9746" x2="5349.5488" y2="-1651.1644">
<stop offset="0%" style="stop-color:rgb(27,131,94);stop-opacity: 1"/>
<stop offset="100%" style="stop-color:rgb(234,253,24);stop-opacity: 1"/>
</linearGradient>
<path style="stroke: none; stroke-width: 1; stroke-dasharray: none; stroke-linecap: butt; stroke-dashoffset: 0; stroke-linejoin: miter; stroke-miterlimit: 4; fill: url(#SVGID_3_270213); fill-rule: nonzero; opacity: 1;"  paint-order="stroke"  transform=" translate(-305.999706031642, -338.01613290130547)" d="M 306 383.499 L 262.322 383.499 C 262.322 383.499 246.136 383.78000000000003 242.199 366.069 C 238.263 348.358 246.382 330.40000000000003 265.568 322.529 C 284.755 314.657 300.006 307.524 306 292.533 C 311.993 307.523 327.244 314.65700000000004 346.431 322.529 C 365.618 330.4 373.73699999999997 348.35699999999997 369.79999999999995 366.069 C 365.86299999999994 383.78000000000003 349.67799999999994 383.499 349.67799999999994 383.499 L 306 383.499 L 306 383.499 z" stroke-linecap="round" />
</g>
		<g transform="matrix(0.6912074919021229 0 0 0.6912074919021229 -0.0024192262216615745 43.1475908707522)"  >
<linearGradient id="SVGID_4_270214" gradientUnits="userSpaceOnUse" gradientTransform="matrix(0.072 0 0 -0.072 -79.1679 147.5599)"  x1="5349.5352" y1="-4566.5347" x2="5349.5352" y2="-2645.2349">
<stop offset="0%" style="stop-color:rgb(27,131,94);stop-opacity: 1"/>
<stop offset="100%" style="stop-color:rgb(234,253,24);stop-opacity: 1"/>
</linearGradient>
<path style="stroke: none; stroke-width: 1; stroke-dasharray: none; stroke-linecap: butt; stroke-dashoffset: 0; stroke-linejoin: miter; stroke-miterlimit: 4; fill: url(#SVGID_4_270214); fill-rule: nonzero; opacity: 1;"  paint-order="stroke"  transform=" translate(-305.9984999999999, -458.42449999999997)" d="M 306 400.443 L 306 400.443 L 249.215 400.443 L 249.215 516.406 L 261.328 510.9479999999999 L 261.328 434.7149999999999 C 261.328 431.48599999999993 261.50699999999995 428.2569999999999 265.35699999999997 425.1439999999999 C 269.207 422.0309999999999 272.36499999999995 413.0889999999999 272.36499999999995 413.0889999999999 C 272.36499999999995 413.0889999999999 275.52299999999997 422.02999999999986 279.37299999999993 425.1439999999999 C 283.22399999999993 428.2569999999999 283.40199999999993 431.4869999999999 283.40199999999993 434.7149999999999 L 283.40199999999993 501.00199999999995 L 294.96099999999996 495.79299999999995 L 294.96099999999996 434.7149999999999 C 294.96099999999996 431.48599999999993 295.13999999999993 428.2569999999999 298.98999999999995 425.1439999999999 C 302.84 422.0309999999999 305.99799999999993 413.0889999999999 305.99799999999993 413.0889999999999 C 305.99799999999993 413.0889999999999 309.15599999999995 422.02999999999986 313.0059999999999 425.1439999999999 C 316.8559999999999 428.2579999999999 317.0349999999999 431.4869999999999 317.0349999999999 434.7149999999999 L 317.0349999999999 495.7929999999999 L 328.59399999999994 501.0009999999999 L 328.59399999999994 434.7149999999999 C 328.59399999999994 431.48599999999993 328.77399999999994 428.2569999999999 332.62299999999993 425.1439999999999 C 336.4719999999999 422.0309999999999 339.6309999999999 413.0889999999999 339.6309999999999 413.0889999999999 C 339.6309999999999 413.0889999999999 342.78899999999993 422.02999999999986 346.6389999999999 425.1439999999999 C 350.4899999999999 428.2569999999999 350.6679999999999 431.4869999999999 350.6679999999999 434.7149999999999 L 350.6679999999999 510.9479999999999 L 362.78199999999987 516.406 L 362.78199999999987 400.443 L 305.9979999999999 400.443 L 306 400.443 z" stroke-linecap="round" />
</g>
		<g transform="matrix(0.6912074919021229 0 0 0.6912074919021229 -0.002073622475677439 -6.978430838243838)"  >
<linearGradient id="SVGID_5_270215" gradientUnits="userSpaceOnUse" gradientTransform="matrix(0.072 0 0 -0.072 -385.16690000000006 -238.34509999999997)"  x1="5349.543" y1="-3146.5049" x2="5349.543" y2="-3615.1748">
<stop offset="0%" style="stop-color:rgb(27,131,94);stop-opacity: 1"/>
<stop offset="100%" style="stop-color:rgb(234,253,24);stop-opacity: 1"/>
</linearGradient>
<polygon style="stroke: none; stroke-width: 1; stroke-dasharray: none; stroke-linecap: butt; stroke-dashoffset: 0; stroke-linejoin: miter; stroke-miterlimit: 4; fill: url(#SVGID_5_270215); fill-rule: nonzero; opacity: 1;"  paint-order="stroke"  points="0.0009999999999763531,-7.586999999999989 -70.52400000000003,-7.586999999999989 -57.56200000000001,7.587000000000046 0.0009999999999763531,7.587000000000046 57.563999999999965,7.587000000000046 70.524,-7.586999999999989 " />
</g>
		<g transform="matrix(0.6912074919021229 0 0 0.6912074919021229 0 0.3977899115896264)"  >
<linearGradient id="SVGID_6_270216" gradientUnits="userSpaceOnUse" gradientTransform="matrix(0.072 0 0 -0.072 -79.1679 147.5599)"  x1="5349.5742" y1="-5080.2847" x2="5349.5742" y2="-554.3247">
<stop offset="0%" style="stop-color:rgb(27,131,94);stop-opacity: 1"/>
<stop offset="100%" style="stop-color:rgb(234,253,24);stop-opacity: 1"/>
</linearGradient>
<path style="stroke: none; stroke-width: 1; stroke-dasharray: none; stroke-linecap: butt; stroke-dashoffset: 0; stroke-linejoin: miter; stroke-miterlimit: 4; fill: url(#SVGID_6_270216); fill-rule: nonzero; opacity: 1;"  paint-order="stroke"  transform=" translate(-306.00199999999995, -396.5764999999999)" d="M 306 259.991 C 310.506 259.991 314.959 260.215 319.354 260.642 C 263.608 266.645 220.20099999999996 313.843 220.20099999999996 371.18399999999997 C 220.20099999999996 432.59399999999994 269.984 482.376 331.39399999999995 482.376 C 388.73599999999993 482.376 435.93399999999997 438.969 441.9359999999999 383.22299999999996 C 442.3639999999999 387.61799999999994 442.58699999999993 392.07099999999997 442.58699999999993 396.57699999999994 C 442.58699999999993 472.01099999999997 381.4359999999999 533.1619999999999 306.00199999999995 533.1619999999999 C 230.56699999999995 533.1619999999999 169.41699999999994 472.0109999999999 169.41699999999994 396.5769999999999 C 169.41699999999994 321.1419999999999 230.56799999999996 259.9909999999999 306.00199999999995 259.9909999999999 L 306 259.9909999999999 z" stroke-linecap="round" />
</g>
</g>
</g>
<g transform="matrix(1.9211538461538462 0 0 1.9211538461538462 638.9729859372272 678.0036231995477)" id="text-logo"  >
<g style=""  paint-order="stroke"   >
		<g transform="matrix(1 0 0 1 0 0)" id="text-logo-path-0"  >
<path style="stroke: none; stroke-width: 0; stroke-dasharray: none; stroke-linecap: butt; stroke-dashoffset: 0; stroke-linejoin: miter; stroke-miterlimit: 4; fill: rgb(182,222,41); fill-rule: nonzero; opacity: 1;"  paint-order="stroke"  transform=" translate(-228.14181955373658, 17.72)" d="M 39.12 -35.45 L 34.07 -35.45 L 23.31 -8.47 L 11.02 -35.45 L 7.24 -35.45 C 5.1 -35.45 3.62 -35.7 1.73 -35.7 C 0.56 -35.7 0.61 -34.17 1.73 -34.17 C 4.85 -34.17 5.71 -31.93 5.71 -28.61 L 5.71 -6.83 C 5.71 -3.57 4.85 -1.28 1.73 -1.28 C 0.66 -1.28 0.56 0.26 1.73 0.26 C 3.32 0.26 4.69 0.05 6.48 0 C 8.26 0.05 9.64 0.26 11.22 0.26 C 12.34 0.26 12.34 -1.28 11.22 -1.28 C 8.16 -1.28 7.24 -3.57 7.24 -6.83 L 7.24 -27.85 L 19.89 0 L 21.52 0 L 34.07 -31.42 L 34.07 -6.83 C 34.07 -3.57 33.2 -1.28 30.09 -1.28 C 29.02 -1.28 28.92 0.26 30.09 0.26 C 31.93 0.26 33.41 0 35.65 0 L 39.12 0 C 41.26 0 42.79 0.26 44.68 0.26 C 45.8 0.26 45.8 -1.28 44.68 -1.28 C 41.57 -1.28 40.65 -3.57 40.65 -6.83 L 40.65 -28.61 C 40.65 -31.88 41.51 -34.17 44.68 -34.17 C 45.75 -34.17 45.85 -35.7 44.68 -35.7 C 42.79 -35.7 41.31 -35.45 39.12 -35.45 Z M 84.05 -6.22 L 71.15 -35.45 L 69.46 -35.45 L 58.7 -6.43 C 57.53 -3.32 55.44 -1.28 52.33 -1.28 C 51.26 -1.28 51.15 0.26 52.33 0.26 C 53.91 0.26 55.23 0.05 57.02 0 C 59.47 0.05 61.3 0.26 63.6 0.26 C 65.18 0.26 65.13 -1.28 63.6 -1.28 C 59.26 -1.28 59.21 -3.32 60.38 -6.43 L 62.22 -11.48 L 74.82 -11.48 L 77.11 -6.22 C 78.49 -3.26 78.69 -1.28 74.31 -1.28 C 72.83 -1.28 72.68 0.26 74.31 0.26 C 76.91 0.26 79 0 82.11 0 L 85.73 0 C 87.31 0 88.33 0.26 89.66 0.26 C 90.42 0.26 90.42 -1.28 89.66 -1.28 C 87.52 -1.28 85.43 -3.21 84.05 -6.22 Z M 74.15 -13.01 L 62.78 -13.01 L 68.03 -26.98 Z M 96.24 -4.03 C 99.76 -0.92 104.24 0.82 109.6 0.82 C 116.59 0.82 122.3 -2.7 122.3 -8.72 C 122.3 -18.77 102.61 -20.25 102.61 -28.56 C 102.61 -32.18 105.83 -34.48 109.65 -34.48 C 114.24 -34.48 118.27 -30.14 119.95 -25.3 L 120.72 -25.3 L 120.77 -31.42 C 117.45 -34.53 113.32 -36.26 108.32 -36.26 C 101.39 -36.26 96.54 -32.03 96.54 -26.47 C 96.54 -15.81 116.13 -14.84 116.13 -6.38 C 116.13 -2.86 112.61 -0.97 108.94 -0.97 C 103.38 -0.97 99.2 -4.85 97 -11.48 L 96.24 -11.48 Z M 128.67 -4.95 C 128.67 -2.14 131.89 0.82 137.39 0.82 C 144.53 0.82 148.31 -3.72 148.31 -11.02 L 148.31 -28.61 C 148.31 -31.88 149.18 -34.17 152.34 -34.17 C 153.41 -34.17 153.51 -35.7 152.34 -35.7 C 150.45 -35.7 148.97 -35.45 146.73 -35.45 L 143.46 -35.45 C 141.07 -35.45 139.43 -35.7 137.34 -35.7 C 136.07 -35.7 136.12 -34.17 137.34 -34.17 C 140.76 -34.17 141.73 -31.93 141.73 -28.61 L 141.73 -7.75 C 141.73 -3.47 139.69 -0.71 137.29 -0.71 C 133.93 -0.71 135.35 -7.6 131.48 -7.6 C 129.59 -7.6 128.67 -6.38 128.67 -4.95 Z M 164.53 -28.61 L 164.53 -6.83 C 164.53 -3.57 163.66 -1.28 160.55 -1.28 C 159.48 -1.28 159.38 0.26 160.55 0.26 C 162.38 0.26 163.86 0 166.11 0 L 169.58 0 C 171.72 0 173.25 0.26 175.13 0.26 C 176.26 0.26 176.26 -1.28 175.13 -1.28 C 172.02 -1.28 171.11 -3.57 171.11 -6.83 L 171.11 -28.61 C 171.11 -31.88 171.97 -34.17 175.13 -34.17 C 176.21 -34.17 176.31 -35.7 175.13 -35.7 C 173.25 -35.7 171.77 -35.45 169.58 -35.45 L 166.11 -35.45 C 163.91 -35.45 162.44 -35.7 160.55 -35.7 C 159.38 -35.7 159.43 -34.17 160.55 -34.17 C 163.66 -34.17 164.53 -31.93 164.53 -28.61 Z M 186.66 -28.61 L 186.66 -6.83 C 186.66 -3.57 185.79 -1.28 182.68 -1.28 C 181.61 -1.28 181.51 0.26 182.68 0.26 C 184.52 0.26 186 0 188.24 0 L 196.15 0 C 206.86 -0.46 214.4 -6.38 214.4 -17.8 C 214.4 -29.12 207.21 -34.99 196.15 -35.45 L 188.24 -35.45 C 186.05 -35.45 184.57 -35.7 182.68 -35.7 C 181.56 -35.7 181.56 -34.17 182.68 -34.17 C 185.79 -34.17 186.66 -31.93 186.66 -28.61 Z M 196.15 -1.53 L 193.24 -1.53 L 193.24 -33.91 L 196.15 -33.91 C 203.18 -33.91 207.57 -28.61 207.57 -17.8 C 207.57 -6.99 202.83 -1.53 196.15 -1.53 Z M 282.95 -35.45 L 277.9 -35.45 L 267.14 -8.47 L 254.85 -35.45 L 251.07 -35.45 C 248.93 -35.45 247.45 -35.7 245.57 -35.7 C 244.39 -35.7 244.44 -34.17 245.57 -34.17 C 248.68 -34.17 249.54 -31.93 249.54 -28.61 L 249.54 -6.83 C 249.54 -3.57 248.68 -1.28 245.57 -1.28 C 244.49 -1.28 244.39 0.26 245.57 0.26 C 247.15 0.26 248.52 0.05 250.31 0 C 252.09 0.05 253.47 0.26 255.05 0.26 C 256.17 0.26 256.17 -1.28 255.05 -1.28 C 251.99 -1.28 251.07 -3.57 251.07 -6.83 L 251.07 -27.85 L 263.72 0 L 265.35 0 L 277.9 -31.42 L 277.9 -6.83 C 277.9 -3.57 277.03 -1.28 273.92 -1.28 C 272.85 -1.28 272.75 0.26 273.92 0.26 C 275.76 0.26 277.24 0 279.48 0 L 282.95 0 C 285.09 0 286.62 0.26 288.51 0.26 C 289.63 0.26 289.63 -1.28 288.51 -1.28 C 285.4 -1.28 284.48 -3.57 284.48 -6.83 L 284.48 -28.61 C 284.48 -31.88 285.35 -34.17 288.51 -34.17 C 289.58 -34.17 289.68 -35.7 288.51 -35.7 C 286.62 -35.7 285.14 -35.45 282.95 -35.45 Z M 311.71 0.82 C 321.56 0.82 328.7 -5.92 328.7 -17.8 C 328.7 -29.48 321.56 -36.26 311.71 -36.26 C 301.82 -36.26 294.68 -29.53 294.68 -17.8 C 294.68 -5.92 301.77 0.82 311.71 0.82 Z M 311.71 -0.97 C 305.75 -0.97 301.51 -6.94 301.51 -17.8 C 301.51 -28.46 305.75 -34.48 311.71 -34.48 C 317.58 -34.48 321.86 -28.51 321.86 -17.8 C 321.86 -6.99 317.63 -0.97 311.71 -0.97 Z M 334.92 0.26 C 336.75 0.26 338.23 0 340.48 0 L 352.16 0 C 360.21 -0.36 364.5 -4.03 364.5 -9.59 C 364.5 -14.74 360.93 -18.26 353.69 -18.92 C 359.09 -19.84 362 -22.8 362 -27.08 C 362 -31.93 358.43 -35.09 351.24 -35.39 L 340.48 -35.45 C 338.28 -35.45 336.75 -35.7 334.92 -35.7 C 333.74 -35.7 333.8 -34.17 334.92 -34.17 C 338.03 -34.17 338.9 -31.93 338.9 -28.61 L 338.9 -6.83 C 338.9 -3.57 338.03 -1.28 334.92 -1.28 C 333.85 -1.28 333.74 0.26 334.92 0.26 Z M 348.89 -19.58 L 345.47 -19.58 L 345.47 -33.91 L 348.89 -33.91 C 352.72 -33.91 355.16 -31.16 355.16 -26.78 C 355.16 -22.49 352.56 -19.58 348.89 -19.58 Z M 350.42 -1.53 L 345.47 -1.53 L 345.47 -18.05 L 350.42 -18.05 C 354.86 -18.05 357.66 -14.89 357.66 -9.84 C 357.66 -4.85 354.65 -1.53 350.42 -1.53 Z M 375 -28.61 L 375 -6.83 C 375 -3.57 374.14 -1.28 371.03 -1.28 C 369.95 -1.28 369.85 0.26 371.03 0.26 C 372.86 0.26 374.34 0 376.58 0 L 380.05 0 C 382.19 0 383.72 0.26 385.61 0.26 C 386.73 0.26 386.73 -1.28 385.61 -1.28 C 382.5 -1.28 381.58 -3.57 381.58 -6.83 L 381.58 -28.61 C 381.58 -31.88 382.45 -34.17 385.61 -34.17 C 386.68 -34.17 386.78 -35.7 385.61 -35.7 C 383.72 -35.7 382.25 -35.45 380.05 -35.45 L 376.58 -35.45 C 374.39 -35.45 372.91 -35.7 371.03 -35.7 C 369.85 -35.7 369.9 -34.17 371.03 -34.17 C 374.14 -34.17 375 -31.93 375 -28.61 Z M 397.14 -28.61 L 397.14 -6.83 C 397.14 -3.57 396.27 -1.28 393.16 -1.28 C 392.09 -1.28 391.99 0.26 393.16 0.26 C 395 0.26 396.47 0 398.72 0 L 419.22 0 L 419.48 -1.48 C 419.88 -3.88 420.6 -6.43 421.01 -8.87 C 421.26 -10.2 419.99 -10.15 419.83 -9.08 C 418.76 -2.75 411.93 -1.53 407.54 -1.53 L 403.72 -1.53 L 403.72 -28.61 C 403.72 -31.88 404.58 -34.17 407.75 -34.17 C 408.82 -34.17 408.92 -35.7 407.75 -35.7 C 405.91 -35.7 404.38 -35.45 402.19 -35.45 L 398.72 -35.45 C 396.53 -35.45 395.05 -35.7 393.16 -35.7 C 392.04 -35.7 392.04 -34.17 393.16 -34.17 C 396.27 -34.17 397.14 -31.93 397.14 -28.61 Z M 431.51 -28.61 L 431.51 -6.83 C 431.51 -3.57 430.64 -1.28 427.53 -1.28 C 426.46 -1.28 426.36 0.26 427.53 0.26 C 429.37 0.26 430.85 0 433.09 0 L 453.59 0 L 453.85 -1.48 C 454.26 -3.88 454.97 -6.43 455.38 -8.87 C 455.63 -10.2 454.36 -10.15 454.21 -9.08 C 453.14 -2.75 446.3 -1.53 441.92 -1.53 L 438.09 -1.53 L 438.09 -17.24 L 440.54 -17.24 C 444.21 -17.24 449.77 -16.47 449.77 -12.19 C 449.77 -11.53 450.79 -11.32 450.79 -12.19 C 450.79 -13.82 450.53 -15.61 450.53 -17.29 L 450.53 -18.67 C 450.53 -20.3 450.79 -22.08 450.79 -23.77 C 450.79 -24.58 449.77 -24.48 449.77 -23.77 C 449.77 -19.53 444.21 -18.72 440.54 -18.72 L 438.09 -18.72 L 438.09 -33.91 L 441.71 -33.91 C 446.05 -33.91 452.73 -32.79 452.73 -26.42 C 452.73 -25.4 453.95 -25.09 453.95 -26.42 C 453.95 -28.87 453.65 -31.52 453.65 -34.02 L 453.65 -35.45 L 433.09 -35.45 C 430.9 -35.45 429.42 -35.7 427.53 -35.7 C 426.41 -35.7 426.41 -34.17 427.53 -34.17 C 430.64 -34.17 431.51 -31.93 431.51 -28.61 Z" stroke-linecap="round" />
</g>
</g>
</g>
<g transform="matrix(1 0 0 1 325 402.1779923561209)" id="tagline-b7286f67-a646-4cf8-8ad1-f17aac60ecd4-logo"  >
<g style=""  paint-order="stroke"   >
		<g transform="matrix(1 0 0 1 0 0)" id="tagline-b7286f67-a646-4cf8-8ad1-f17aac60ecd4-logo-path-0"  >
<path style="stroke: none; stroke-width: 0; stroke-dasharray: none; stroke-linecap: butt; stroke-dashoffset: 0; stroke-linejoin: miter; stroke-miterlimit: 4; fill: rgb(27,131,94); fill-rule: nonzero; opacity: 1;"  paint-order="stroke"  transform=" translate(0, 0)" d="" stroke-linecap="round" />
</g>
</g>
</g>
</svg>